<?xml version="1.0" encoding="utf-8"?>
<!-- Generator: Adobe Illustrator 16.0.0, SVG Export Plug-In . SVG Version: 6.00 Build 0)  -->
<!DOCTYPE svg PUBLIC "-//W3C//DTD SVG 1.1//EN" "http://www.w3.org/Graphics/SVG/1.1/DTD/svg11.dtd">
<svg version="1.1" id="Layer_1" xmlns="http://www.w3.org/2000/svg" xmlns:xlink="http://www.w3.org/1999/xlink" x="0px" y="0px"
	 width="800px" height="800px" viewBox="0 0 800 800" style="enable-background:new 0 0 800 800;" xml:space="preserve">
<style type="text/css">
<![CDATA[
 
	.st5{fill:#064B62;}
	.st6{fill:#075567;}
 
 
]]>
</style>
	<g>
 	<g>
		<ellipse class="st5" cx="407.7" cy="681.1" rx="284.7" ry="19"/>
	</g>
	<g>
		<path class="st5" d="M196.6,624.1c2.3-3.2,5-6.1,7.6-9.1c10.2-11.8,17.5-26,21.3-41.1l362,0.4c1,2.5,2.1,4.9,3.1,7.4
			c1.5,3.6,3,7.2,4.7,10.7c5,10.5,11.7,20.3,19.5,28.9L196.6,624.1z"/>
		<path class="st6" d="M612.3,685.2H201.5c-6.1,0-11-4.9-11-11v-47.1c0-6,4.9-11,11-11h410.9c6,0,11,5,11,11v47.1
			C623.3,680.3,618.4,685.2,612.3,685.2z"/>
		<path class="st5" d="M570.3,532.5c-2.4,13.2,2.6,21.8,10.9,32.4L234,564.3c1.1,0.1,2-1,2.5-1.9c5.5-9.8,11.1-16.2,9.1-27.3
			C245.6,535.1,410.1,556.5,570.3,532.5z"/>
		<path class="st6" d="M589.5,580.7H224.3c-5.3,0-9.6-4.3-9.6-9.6v-0.7c0-5.3,4.3-9.6,9.6-9.6h365.1c5.3,0,9.6,4.3,9.6,9.6v0.7
			C599.1,576.4,594.8,580.7,589.5,580.7z"/>
	</g>
 	</g>
</svg>
